<svg xmlns="http://www.w3.org/2000/svg" width="40" height="40" viewBox="0 0 32 32">
    <path id="pinterest" d="M28,16a12.00826,12.00826,0,0,1-15.55306,11.4649A13.41393,13.41393,0,0,0,13.93843,24.319c.14588-.56144.74756-2.85262.74756-2.85262a3.21172,3.21172,0,0,0,2.75037,1.37792c3.61935,0,6.227-3.32835,6.227-7.464,0-3.96431-3.2351-6.93061-7.39786-6.93061-5.1785,0-7.92881,3.4763-7.92881,7.2617,0,1.76.937,3.95118,2.4358,4.64884.22735.10574.34892.05919.40129-.16049.03974-.16677.24218-.98182.3333-1.3609a.35883.35883,0,0,0-.08325-.34415,4.66806,4.66806,0,0,1-.893-2.73852,5.19418,5.19418,0,0,1,5.41849-5.20767,4.73706,4.73706,0,0,1,5.01246,4.882c0,3.24624-1.63942,5.49513-3.77227,5.49513a1.7423,1.7423,0,0,1-1.777-2.16843,24.17178,24.17178,0,0,0,.99388-3.99545A1.50755,1.50755,0,0,0,14.888,13.07141c-1.2042,0-2.17132,1.24572-2.17132,2.9143a4.33223,4.33223,0,0,0,.359,1.7816s-1.18915,5.0283-1.40715,5.96483a11.52936,11.52936,0,0,0-.04161,3.44608A12.00139,12.00139,0,1,1,28,16Z" fill="#262626"/>
</svg>
